<svg width="146" height="31" viewBox="0 0 146 31" fill="none" xmlns="http://www.w3.org/2000/svg">
<path d="M0 30.1641V0.164062H7.33111V23.4852H31.7747V30.1641H0Z" fill="#303030"/>
<path d="M44.1913 3.97428H62.0486C64.1918 3.97428 66.0082 4.73341 67.498 6.25165C69.0269 7.7699 69.7718 9.60932 69.7326 11.7699V22.3903C69.7587 24.5363 69.0073 26.3757 67.4784 27.9086C66.0148 29.4122 64.2048 30.1641 62.0486 30.1641H44.1913C42.1004 30.1641 40.2905 29.4049 38.7616 27.8867C37.2718 26.3684 36.527 24.5363 36.527 22.3903V11.7699C36.5662 9.60932 37.3176 7.7699 38.7812 6.25165C40.3101 4.73341 42.1135 3.97428 44.1913 3.97428ZM46.0339 10.3465C45.3282 10.3319 44.714 10.5874 44.1913 11.113C43.6947 11.6093 43.4464 12.2298 43.4464 12.9743V21.1641C43.4464 21.8794 43.7013 22.4998 44.2109 23.0254C44.7206 23.4925 45.3282 23.748 46.0339 23.7918H60.2257C60.9705 23.748 61.5847 23.4925 62.0682 23.0254C62.5779 22.4998 62.8262 21.8794 62.8131 21.1641V12.9743C62.8131 12.2298 62.5583 11.6093 62.0486 11.113C61.5521 10.5874 60.9444 10.3319 60.2257 10.3465H46.0339Z" fill="#303030"/>
<path d="M82.2276 3.97428H106.946V10.3465H84.0506C83.3449 10.3319 82.7307 10.5874 82.208 11.113C81.7114 11.6093 81.4631 12.2298 81.4631 12.9743V21.1641C81.4631 21.8794 81.718 22.4998 82.2276 23.0254C82.7373 23.4925 83.3449 23.748 84.0506 23.7918H100.83V20.529H93.0479V14.4414H107.749V30.1641H82.2276C80.1106 30.1641 78.2942 29.4049 76.7783 27.8867C75.2886 26.3684 74.5437 24.5363 74.5437 22.3903V11.7699C74.5829 9.60932 75.3343 7.7699 76.7979 6.25165C78.3269 4.73341 80.1368 3.97428 82.2276 3.97428Z" fill="#303030"/>
<path d="M120.146 3.97428H138.004C140.147 3.97428 141.963 4.73341 143.453 6.25165C144.982 7.7699 145.727 9.60932 145.688 11.7699V22.3903C145.714 24.5363 144.962 26.3757 143.433 27.9086C141.97 29.4122 140.16 30.1641 138.004 30.1641H120.146C118.055 30.1641 116.246 29.4049 114.717 27.8867C113.227 26.3684 112.482 24.5363 112.482 22.3903V11.7699C112.521 9.60932 113.273 7.7699 114.736 6.25165C116.265 4.73341 118.069 3.97428 120.146 3.97428ZM121.989 10.3465C121.283 10.3319 120.669 10.5874 120.146 11.113C119.65 11.6093 119.401 12.2298 119.401 12.9743V21.1641C119.401 21.8794 119.656 22.4998 120.166 23.0254C120.676 23.4925 121.283 23.748 121.989 23.7918H136.181C136.926 23.748 137.54 23.4925 138.023 23.0254C138.533 22.4998 138.781 21.8794 138.768 21.1641V12.9743C138.768 12.2298 138.513 11.6093 138.004 11.113C137.507 10.5874 136.899 10.3319 136.181 10.3465H121.989Z" fill="#303030"/>
</svg>
