<svg width="35" height="36" viewBox="0 0 35 36" fill="none" xmlns="http://www.w3.org/2000/svg">
<path d="M20.8768 14.7866H20.883M14.4295 12.0234H20.5698C22.2654 12.0234 23.64 13.398 23.64 15.0936V21.2339C23.64 22.9295 22.2654 24.304 20.5698 24.304H14.4295C12.7339 24.304 11.3594 22.9295 11.3594 21.2339V15.0936C11.3594 13.398 12.7339 12.0234 14.4295 12.0234ZM19.9559 17.7769C20.0317 18.2879 19.9444 18.8098 19.7065 19.2684C19.4685 19.7269 19.092 20.0988 18.6306 20.331C18.1691 20.5633 17.6462 20.6442 17.1361 20.5621C16.6261 20.48 16.1549 20.2392 15.7896 19.8739C15.4243 19.5086 15.1835 19.0374 15.1014 18.5274C15.0194 18.0173 15.1002 17.4944 15.3325 17.0329C15.5647 16.5715 15.9366 16.195 16.3951 15.9571C16.8537 15.7191 17.3756 15.6318 17.8866 15.7076C18.4079 15.7849 18.8905 16.0278 19.2631 16.4004C19.6357 16.773 19.8786 17.2556 19.9559 17.7769Z" stroke="#303030" stroke-width="1.1513" stroke-linecap="round" stroke-linejoin="round"/>
</svg>
