<svg width="35" height="36" viewBox="0 0 35 36" fill="none" xmlns="http://www.w3.org/2000/svg">
<path fill-rule="evenodd" clip-rule="evenodd" d="M18.2264 16.7303L21.969 12.7637H23.2098L23.2044 12.7695L18.7779 17.4623L22.8306 22.8413C22.9336 22.9779 22.9504 23.161 22.874 23.3142C22.8026 23.4575 22.661 23.5514 22.5029 23.5629H19.9651C19.8357 23.5535 19.716 23.4888 19.6373 23.3844L16.7855 19.5993L13.0647 23.5629H11.791L16.234 18.8672L12.1814 13.4884C12.0784 13.3517 12.0616 13.1686 12.1379 13.0154C12.2143 12.8623 12.3707 12.7655 12.5418 12.7655H15.0142C15.1559 12.7655 15.2894 12.8321 15.3746 12.9452L18.2264 16.7303ZM17.8466 17.7261C17.8338 17.7112 17.8221 17.6956 17.8116 17.6796L14.7892 13.6681H13.4468L20.2228 22.6615H21.5651L17.8466 17.7261Z" fill="#303030"/>
</svg>
