<svg width="35" height="36" viewBox="0 0 35 36" fill="none" xmlns="http://www.w3.org/2000/svg">
<path d="M24.2405 14.7666C24.1646 14.4631 24.0098 14.1849 23.7919 13.9603C23.5741 13.7357 23.3008 13.5726 22.9997 13.4874C21.8995 13.2188 17.499 13.2188 17.499 13.2188C17.499 13.2188 13.0985 13.2188 11.9983 13.513C11.6972 13.5982 11.4239 13.7613 11.2061 13.9859C10.9882 14.2105 10.8335 14.4886 10.7575 14.7922C10.5561 15.9087 10.4577 17.0413 10.4633 18.1758C10.4561 19.3188 10.5546 20.46 10.7575 21.5849C10.8412 21.879 10.9994 22.1466 11.2168 22.3617C11.4342 22.5768 11.7034 22.7322 11.9983 22.8129C13.0985 23.1072 17.499 23.1072 17.499 23.1072C17.499 23.1072 21.8995 23.1072 22.9997 22.8129C23.3008 22.7278 23.5741 22.5646 23.7919 22.34C24.0098 22.1154 24.1646 21.8373 24.2405 21.5337C24.4403 20.4256 24.5388 19.3017 24.5348 18.1758C24.5419 17.0327 24.4434 15.8915 24.2405 14.7666Z" stroke="#303030" stroke-width="1.53507" stroke-linecap="round" stroke-linejoin="round"/>
<path d="M16.0599 20.2673L19.7376 18.1758L16.0599 16.0842V20.2673Z" stroke="#303030" stroke-width="1.53507" stroke-linecap="round" stroke-linejoin="round"/>
</svg>
